<svg width="155" height="78" viewBox="0 0 155 78" fill="none" xmlns="http://www.w3.org/2000/svg">
<path fill-rule="evenodd" clip-rule="evenodd" d="M5.37997 41.0606H16.3647V54H21.7447V24H16.3647V36.5056H5.37997V24H0V54H5.37997V41.0606ZM36.8805 24L45.7073 54H52.0763L60.7757 24H55.3957L50.3529 42.5714L49.2365 49.1832H48.6296L47.5131 42.5714L42.4328 24H36.8805ZM82.4978 54V42.5266L73.2889 24H79.1859L85.0004 36.8945H85.5999L91.2871 24H97.0567L87.8852 42.5266V54H82.4978ZM123.425 54V28.727H131V24H110.507V28.727H118.045V54H123.425Z" fill="#661F30"/>
</svg>
