<svg width="34" height="24" viewBox="0 0 34 24" fill="none" xmlns="http://www.w3.org/2000/svg">
<rect x="0.5" y="0.5" width="33" height="23" rx="3.5" fill="black" stroke="#F3F3F3"/>
<path d="M12.7957 7.6405C12.8021 6.63329 12.0086 5.81148 11.0234 5.80494C10.0382 5.7984 9.23429 6.6096 9.22789 7.61682C9.22149 8.62403 10.015 9.44584 11.0002 9.45238C11.9855 9.45892 12.7893 8.64771 12.7957 7.6405Z" fill="url(#paint0_linear_2735_3675)"/>
<path d="M14.1983 6.38971H16.1924V17.957H14.1983V6.38971Z" fill="white"/>
<path d="M17.9621 10.3807H19.9562V17.957H17.9621V10.3807Z" fill="white"/>
<path d="M9.01383 10.3051C8.3895 10.3042 7.77475 10.4619 7.22484 10.7641V6.38997H5.23047V14.1713C5.23027 14.9362 5.45195 15.684 5.86747 16.3201C6.28299 16.9562 6.8737 17.452 7.56487 17.7449C8.25605 18.0378 9.01666 18.1145 9.75052 17.9655C10.4844 17.8164 11.1585 17.4482 11.6877 16.9075C12.2168 16.3667 12.5773 15.6777 12.7234 14.9275C12.8695 14.1773 12.7947 13.3997 12.5085 12.693C12.2223 11.9863 11.7375 11.3822 11.1154 10.9572C10.4934 10.5321 9.76203 10.3052 9.01383 10.3051ZM9.01383 16.0326C8.65379 16.0326 8.30183 15.9235 8.00246 15.719C7.7031 15.5145 7.46977 15.2239 7.33197 14.8838C7.19418 14.5438 7.15812 14.1696 7.22834 13.8086C7.29856 13.4476 7.47191 13.116 7.72648 12.8557C7.98105 12.5954 8.3054 12.4181 8.65852 12.3463C9.01164 12.2745 9.37766 12.3113 9.71031 12.4521C10.043 12.5929 10.3273 12.8314 10.5274 13.1374C10.7274 13.4435 10.8342 13.8032 10.8343 14.1713C10.8344 14.4158 10.7874 14.6578 10.6959 14.8837C10.6045 15.1095 10.4704 15.3148 10.3013 15.4876C10.1323 15.6605 9.93153 15.7976 9.71062 15.8911C9.48971 15.9846 9.25293 16.0327 9.01383 16.0326Z" fill="white"/>
<path d="M26.5161 17.9575H29.0848L25.9987 13.8826L28.7972 10.3812H26.4673L23.7191 13.9045V6.39125H21.7245V17.9575H23.7191L23.7176 13.9143L26.5161 17.9575Z" fill="white"/>
<defs>
<linearGradient id="paint0_linear_2735_3675" x1="9.74062" y1="8.90782" x2="12.3383" y2="6.40317" gradientUnits="userSpaceOnUse">
<stop stop-color="#E52F08"/>
<stop offset="1" stop-color="#E94F96"/>
</linearGradient>
</defs>
</svg>
