<svg width="40" height="40" viewBox="0 0 40 40" fill="none" xmlns="http://www.w3.org/2000/svg">
<path d="M11.2953 13.3333H28.7038M11.2953 13.3333C9.1293 13.3333 8.04718 13.3333 7.27678 13.7752C6.60073 14.163 6.08112 14.7754 5.80976 15.506C5.50052 16.3385 5.67882 17.4069 6.03492 19.5435L7.59047 28.8768C7.85435 30.4601 7.98673 31.2517 8.38178 31.8457C8.73001 32.3694 9.21927 32.784 9.79306 33.0414C10.444 33.3334 11.2462 33.3333 12.8513 33.3333H27.1486C28.7538 33.3333 29.5559 33.3334 30.2068 33.0414C30.7806 32.784 31.2694 32.3694 31.6176 31.8457C32.0127 31.2517 32.1447 30.4601 32.4086 28.8768L33.9642 19.5435C34.3203 17.4069 34.4987 16.3385 34.1895 15.506C33.9181 14.7754 33.3997 14.163 32.7236 13.7752C31.9532 13.3333 30.8698 13.3333 28.7038 13.3333M11.2953 13.3333C11.2953 9.65144 13.3332 5 19.9998 5C26.6664 5 28.7038 9.65144 28.7038 13.3333" stroke="#363132" stroke-width="3" stroke-linecap="round" stroke-linejoin="round"/>
</svg>
