<svg width="24" height="24" viewBox="0 0 24 24" fill="none" xmlns="http://www.w3.org/2000/svg">
<path d="M6.77736 8H17.2224M6.77736 8C5.47774 8 4.82846 8 4.36623 8.26514C3.96059 8.49781 3.64883 8.86522 3.48601 9.30359C3.30047 9.80313 3.40745 10.4441 3.62111 11.7261L4.55444 17.3261C4.71277 18.276 4.7922 18.751 5.02923 19.1074C5.23817 19.4216 5.53172 19.6704 5.87599 19.8248C6.26655 20 6.74788 20 7.71095 20H16.2893C17.2524 20 17.7337 20 18.1242 19.8248C18.4685 19.6704 18.7618 19.4216 18.9707 19.1074C19.2077 18.751 19.287 18.276 19.4453 17.3261L20.3787 11.7261C20.5923 10.4441 20.6994 9.80313 20.5139 9.30359C20.351 8.86522 20.04 8.49781 19.6343 8.26514C19.1721 8 18.522 8 17.2224 8M6.77736 8C6.77736 5.79086 8.00006 3 12 3C16 3 17.2224 5.79086 17.2224 8" stroke="#363132" stroke-width="2" stroke-linecap="round" stroke-linejoin="round"/>
</svg>
