<svg width="16" height="17" viewBox="0 0 16 17" fill="none" xmlns="http://www.w3.org/2000/svg">
<path d="M12.301 5.08122C13.6319 5.23088 14.6663 6.36016 14.6663 7.73105V12.3977C14.6663 13.8705 13.4724 15.0644 11.9997 15.0644H3.99967C2.52691 15.0644 1.33301 13.8705 1.33301 12.3977V7.73105C1.33301 6.36016 2.36747 5.23088 3.69838 5.08122C2.85942 4.23804 2.54011 3.08921 3.06826 2.17443C3.74135 1.00861 5.43181 0.844718 6.83301 1.6537C7.31281 1.93071 7.71078 2.29413 7.99967 2.69911C8.28857 2.29413 8.68654 1.93071 9.16634 1.6537C10.5675 0.844718 12.258 1.00861 12.9311 2.17443C13.4592 3.08921 13.1399 4.23804 12.301 5.08122ZM2.66634 9.39772H7.33301V6.39772H3.99967C3.26329 6.39772 2.66634 6.99467 2.66634 7.73105V9.39772ZM2.66634 10.7311V12.3977C2.66634 13.1341 3.26329 13.7311 3.99967 13.7311H7.33301V10.7311H2.66634ZM13.333 9.39772V7.73105C13.333 6.99467 12.7361 6.39772 11.9997 6.39772H8.66634V9.39772H13.333ZM13.333 10.7311H8.66634V13.7311H11.9997C12.7361 13.7311 13.333 13.1341 13.333 12.3977V10.7311ZM5.16634 4.54045C5.99717 5.02013 6.86233 4.93625 7.10972 4.50776C7.35711 4.07927 6.99717 3.28808 6.16634 2.8084C5.33551 2.32872 4.47036 2.4126 4.22297 2.84109C3.97557 3.26959 4.33551 4.06077 5.16634 4.54045ZM10.833 4.54045C11.6638 4.06077 12.0238 3.26959 11.7764 2.84109C11.529 2.4126 10.6638 2.32872 9.83301 2.8084C9.00218 3.28808 8.64224 4.07927 8.88963 4.50776C9.13702 4.93625 10.0022 5.02013 10.833 4.54045Z" fill="#1F1C25"/>
</svg>
