<svg width="29" height="29" viewBox="0 0 29 29" fill="none" xmlns="http://www.w3.org/2000/svg">
<path d="M8.40693 9.73079H20.5928M8.40693 9.73079C6.8907 9.73079 6.13322 9.73079 5.59394 10.0401C5.1207 10.3116 4.75698 10.7402 4.56702 11.2516C4.35056 11.8344 4.47537 12.5823 4.72464 14.0779L5.81353 20.6112C5.99824 21.7195 6.09091 22.2736 6.36744 22.6895C6.6112 23.056 6.95368 23.3462 7.35533 23.5264C7.81098 23.7308 8.37254 23.7308 9.49612 23.7308H19.5042C20.6278 23.7308 21.1893 23.7308 21.645 23.5264C22.0466 23.3462 22.3888 23.056 22.6325 22.6895C22.909 22.2736 23.0015 21.7195 23.1862 20.6112L24.2751 14.0779C24.5244 12.5823 24.6493 11.8344 24.4329 11.2516C24.2429 10.7402 23.88 10.3116 23.4067 10.0401C22.8675 9.73079 22.1091 9.73079 20.5928 9.73079M8.40693 9.73079C8.40693 7.15347 9.83341 3.89746 14.5 3.89746C19.1666 3.89746 20.5928 7.15347 20.5928 9.73079" stroke="#FCFCFC" stroke-width="2.25" stroke-linecap="round" stroke-linejoin="round"/>
</svg>
