<svg width="18" height="23" viewBox="0 0 18 23" fill="none" xmlns="http://www.w3.org/2000/svg">
<path fill-rule="evenodd" clip-rule="evenodd" d="M4 0.397705C1.79086 0.397705 0 2.18857 0 4.39771V18.3977C0 20.6068 1.79086 22.3977 4 22.3977H14C16.2091 22.3977 18 20.6068 18 18.3977V8.39771C18 8.13249 17.8946 7.87813 17.7071 7.6906L10.7071 0.690598C10.5196 0.503062 10.2652 0.397705 10 0.397705H4ZM2 4.39771C2 3.29314 2.89543 2.39771 4 2.39771H9V6.39771C9 8.05456 10.3431 9.39771 12 9.39771H16V18.3977C16 19.5023 15.1046 20.3977 14 20.3977H4C2.89543 20.3977 2 19.5023 2 18.3977V4.39771ZM14.5858 7.39771L11 3.81192V6.39771C11 6.94999 11.4477 7.39771 12 7.39771H14.5858ZM5.29289 15.6048L8.29289 18.6048C8.68342 18.9953 9.31658 18.9953 9.70711 18.6048L12.7071 15.6048C13.0976 15.2143 13.0976 14.5811 12.7071 14.1906C12.3166 13.8001 11.6834 13.8001 11.2929 14.1906L10 15.4835L10 11.3977C10 10.8454 9.55229 10.3977 9 10.3977C8.44772 10.3977 8 10.8454 8 11.3977L8 15.4835L6.70711 14.1906C6.31658 13.8001 5.68342 13.8001 5.29289 14.1906C4.90237 14.5811 4.90237 15.2143 5.29289 15.6048Z" fill="#0E0B0C"/>
</svg>
