<svg width="100" height="100" viewBox="0 0 100 100" fill="none" xmlns="http://www.w3.org/2000/svg">
<rect width="100" height="100" rx="50" fill="#F7F5F2"/>
<path d="M75.6666 42.9476C75.6675 42.9832 75.6675 43.0188 75.6666 43.0542V61.6667C75.6666 66.8213 71.488 71 66.3333 71H33.6666C28.512 71 24.3333 66.8213 24.3333 61.6667V43.0542C24.3325 43.0188 24.3325 42.9832 24.3333 42.9476V38.3333C24.3333 33.1787 28.512 29 33.6666 29H66.3333C71.488 29 75.6666 33.1787 75.6666 38.3333V42.9476ZM71 41.2639V38.3333C71 35.756 68.9106 33.6667 66.3333 33.6667H33.6666C31.0893 33.6667 29 35.756 29 38.3333V41.2639L49.3295 47.3628C49.7669 47.494 50.2331 47.494 50.6705 47.3628L71 41.2639ZM71 46.1361L52.0114 51.8326C50.6993 52.2263 49.3006 52.2263 47.9885 51.8326L29 46.1361V61.6667C29 64.244 31.0893 66.3333 33.6666 66.3333H66.3333C68.9106 66.3333 71 64.244 71 61.6667V46.1361Z" fill="#363132"/>
</svg>
