<svg width="32" height="32" viewBox="0 0 32 32" fill="none" xmlns="http://www.w3.org/2000/svg">
<path d="M15.9996 2.66666C8.63598 2.66666 2.6665 8.65819 2.6665 16.049C2.6665 22.3247 6.97148 27.5909 12.7788 29.0373V20.1386H10.0296V16.049H12.7788V14.2868C12.7788 9.73198 14.8327 7.62079 19.288 7.62079C20.1328 7.62079 21.5904 7.78726 22.1866 7.95321V11.6601C21.872 11.6269 21.3253 11.6103 20.6464 11.6103C18.4603 11.6103 17.6155 12.4416 17.6155 14.6026V16.049H21.9706L21.2224 20.1386H17.6155V29.3333C24.2175 28.5331 29.3332 22.8911 29.3332 16.049C29.3326 8.65819 23.3632 2.66666 15.9996 2.66666Z" fill="#363132"/>
</svg>
