<svg width="24" height="31" viewBox="0 0 24 31" fill="none" xmlns="http://www.w3.org/2000/svg">
<path fill-rule="evenodd" clip-rule="evenodd" d="M5.33333 0.731018C2.38781 0.731018 0 3.11883 0 6.06435V24.731C0 27.6765 2.38781 30.0644 5.33333 30.0644H18.6667C21.6122 30.0644 24 27.6765 24 24.731V11.3977C24 11.0441 23.8595 10.7049 23.6095 10.4549L14.2761 1.12154C14.0261 0.871494 13.687 0.731018 13.3333 0.731018H5.33333ZM2.66667 6.06435C2.66667 4.59159 3.86057 3.39768 5.33333 3.39768H12V8.73102C12 10.9402 13.7909 12.731 16 12.731H21.3333V24.731C21.3333 26.2038 20.1394 27.3977 18.6667 27.3977H5.33333C3.86057 27.3977 2.66667 26.2038 2.66667 24.731V6.06435ZM19.4477 10.0644L14.6667 5.2833V8.73102C14.6667 9.4674 15.2636 10.0644 16 10.0644H19.4477ZM7.05719 21.0072L11.0572 25.0072C11.5779 25.5279 12.4221 25.5279 12.9428 25.0072L16.9428 21.0072C17.4635 20.4865 17.4635 19.6422 16.9428 19.1215C16.4221 18.6008 15.5779 18.6008 15.0572 19.1215L13.3333 20.8454L13.3333 15.3977C13.3333 14.6613 12.7364 14.0644 12 14.0644C11.2636 14.0644 10.6667 14.6613 10.6667 15.3977L10.6667 20.8454L8.94281 19.1215C8.42211 18.6008 7.57789 18.6008 7.05719 19.1215C6.53649 19.6422 6.53649 20.4865 7.05719 21.0072Z" fill="#5D5759"/>
</svg>
