<svg width="32" height="32" viewBox="0 0 32 32" fill="none" xmlns="http://www.w3.org/2000/svg">
<path d="M13.3333 22.0002L17.3333 23.3335C17.3333 23.3335 27.3333 21.3335 28.6667 21.3335C30 21.3335 30 22.6668 28.6667 24.0002C27.3333 25.3335 22.6667 29.3335 18.6667 29.3335C14.6667 29.3335 12 27.3335 9.33332 27.3335C6.66666 27.3335 2.66666 27.3335 2.66666 27.3335" stroke="#5D5759" stroke-width="2.5" stroke-linecap="round" stroke-linejoin="round"/>
<path d="M2.66666 19.3333C3.99999 18 6.66666 16 9.33332 16C12 16 18.3333 18.6667 19.3333 20C20.3333 21.3333 17.3333 23.3333 17.3333 23.3333" stroke="#5D5759" stroke-width="2.5" stroke-linecap="round" stroke-linejoin="round"/>
<path d="M10.6667 12.0002V6.66683C10.6667 5.93045 11.2636 5.3335 12 5.3335H28C28.7364 5.3335 29.3333 5.93045 29.3333 6.66683V17.3335" stroke="#5D5759" stroke-width="2.5" stroke-linecap="round" stroke-linejoin="round"/>
<path d="M23.3333 5.3335H16.6667V11.3335H23.3333V5.3335Z" stroke="#5D5759" stroke-width="2.5" stroke-linecap="round" stroke-linejoin="round"/>
</svg>
