<svg width="24" height="24" viewBox="0 0 24 24" fill="none" xmlns="http://www.w3.org/2000/svg">
<path d="M16 20.5001H18C19.1046 20.5001 20 19.6046 20 18.5001V9.90792C20 9.27043 19.6961 8.67112 19.1818 8.29443L13.1818 3.8997C12.4782 3.38435 11.5218 3.38435 10.8182 3.8997L4.81819 8.29443C4.3039 8.67112 4 9.27043 4 9.90792V18.5001C4 19.6046 4.89543 20.5001 6 20.5001H8V12.5001C8 11.9478 8.44772 11.5001 9 11.5001H15C15.5523 11.5001 16 11.9478 16 12.5001V20.5001ZM14 20.5001V13.5001H10V20.5001H14ZM3.63639 6.68094L9.63639 2.28621C11.0436 1.25551 12.9564 1.25551 14.3636 2.28621L20.3636 6.68094C21.3922 7.43433 22 8.63294 22 9.90792V18.5001C22 20.7092 20.2091 22.5001 18 22.5001H6C3.79086 22.5001 2 20.7092 2 18.5001V9.90792C2 8.63294 2.60781 7.43433 3.63639 6.68094Z" fill="#1F1C25"/>
</svg>
