<svg width="218" height="106" viewBox="0 0 218 106" fill="none" xmlns="http://www.w3.org/2000/svg">
<path d="M43.72 86H32.44V56C32.44 45.56 27.88 40.76 19.72 40.76C16.24 40.76 13.48 41.48 11.44 43.04V86H0.16V0.679997H11.44V33.8C14.56 32.12 18.28 31.16 22.72 31.16C34.6 31.16 43.72 39.2 43.72 53.24V86ZM55.1378 66.08V39.32H66.4178V66.08C66.4178 77.72 71.8178 82.52 83.2178 82.52H93.7778V39.32H105.058V92.36H82.1378C64.2578 92.36 55.1378 83.84 55.1378 66.08ZM139.931 77.12C148.451 77.12 153.011 72.2 153.011 61.76V28.28H164.291V62.96C164.291 76.04 157.451 84.32 145.931 86.36V105.08H134.771V86.48C122.771 84.68 115.571 76.4 115.571 62.96V28.28H126.851V61.76C126.851 72.2 131.411 77.12 139.931 77.12ZM184.572 63.56V33.92H173.532V24.2H184.572V8H195.852V24.2H213.972V33.92H195.852V62.6C195.852 72.2 199.452 77.96 209.172 77.96C212.052 77.96 215.172 77.48 217.812 75.92V86C214.212 87.32 210.492 87.8 207.252 87.8C193.812 87.8 184.572 80.84 184.572 63.56Z" fill="#F5F5AD"/>
</svg>
