<svg width="32" height="32" viewBox="0 0 32 32" fill="none" xmlns="http://www.w3.org/2000/svg">
<path d="M16.0077 5.06817C19.5722 5.06817 19.9944 5.0838 21.3962 5.14631C22.6991 5.20361 23.4026 5.4224 23.8716 5.60473C24.4918 5.84436 24.94 6.13608 25.4038 6.59972C25.8728 7.06856 26.1594 7.51135 26.3992 8.13127C26.5816 8.60011 26.8004 9.30858 26.8578 10.6057C26.9203 12.0122 26.9359 12.4342 26.9359 15.9922C26.9359 19.5554 26.9203 19.9773 26.8578 21.3786C26.8004 22.681 26.5816 23.3842 26.3992 23.8531C26.1594 24.473 25.8676 24.921 25.4038 25.3846C24.9348 25.8535 24.4918 26.14 23.8716 26.3796C23.4026 26.5619 22.6939 26.7807 21.3962 26.838C19.9892 26.9006 19.567 26.9162 16.0077 26.9162C12.4431 26.9162 12.0209 26.9006 10.6191 26.838C9.31623 26.7807 8.6127 26.5619 8.14367 26.3796C7.52352 26.14 7.07534 25.8483 6.61152 25.3846C6.1425 24.9158 5.85587 24.473 5.61615 23.8531C5.43375 23.3842 5.21487 22.6758 5.15755 21.3786C5.09501 19.9721 5.07938 19.5502 5.07938 15.9922C5.07938 12.429 5.09501 12.007 5.15755 10.6057C5.21487 9.30337 5.43375 8.60011 5.61615 8.13127C5.85587 7.51135 6.14771 7.06335 6.61152 6.59972C7.08055 6.13087 7.52352 5.84436 8.14367 5.60473C8.6127 5.4224 9.32144 5.20361 10.6191 5.14631C12.0209 5.0838 12.4431 5.06817 16.0077 5.06817ZM16.0077 2.66666C12.3857 2.66666 11.9323 2.68228 10.5096 2.7448C9.09214 2.80731 8.11761 3.03652 7.27337 3.36471C6.39265 3.70853 5.64742 4.16174 4.9074 4.90668C4.16217 5.6464 3.70878 6.39134 3.36483 7.26651C3.03651 8.11564 2.80721 9.08458 2.74467 10.5015C2.68214 11.9289 2.6665 12.3821 2.6665 16.0026C2.6665 19.6231 2.68214 20.0763 2.74467 21.4985C2.80721 22.9154 3.03651 23.8896 3.36483 24.7335C3.70878 25.6138 4.16217 26.3588 4.9074 27.0985C5.64742 27.8382 6.39265 28.2967 7.26816 28.6353C8.11761 28.9635 9.08693 29.1927 10.5044 29.2552C11.9271 29.3177 12.3805 29.3333 16.0024 29.3333C19.6244 29.3333 20.0777 29.3177 21.5005 29.2552C22.918 29.1927 23.8925 28.9635 24.7367 28.6353C25.6122 28.2967 26.3575 27.8382 27.0975 27.0985C27.8375 26.3588 28.2961 25.6138 28.6348 24.7387C28.9632 23.8896 29.1925 22.9206 29.255 21.5037C29.3175 20.0815 29.3332 19.6283 29.3332 16.0078C29.3332 12.3873 29.3175 11.9341 29.255 10.5119C29.1925 9.095 28.9632 8.12085 28.6348 7.27693C28.3065 6.39134 27.8531 5.6464 27.1079 4.90668C26.3679 4.16695 25.6227 3.70853 24.7471 3.36992C23.8977 3.04173 22.9284 2.81252 21.5109 2.75001C20.083 2.68228 19.6296 2.66666 16.0077 2.66666Z" fill="#363132"/>
<path d="M16.0077 9.1523C12.2242 9.1523 9.15468 12.2206 9.15468 16.0026C9.15468 19.7846 12.2242 22.8529 16.0077 22.8529C19.7911 22.8529 22.8606 19.7846 22.8606 16.0026C22.8606 12.2206 19.7911 9.1523 16.0077 9.1523ZM16.0077 20.4462C13.5531 20.4462 11.5623 18.4562 11.5623 16.0026C11.5623 13.549 13.5531 11.559 16.0077 11.559C18.4622 11.559 20.453 13.549 20.453 16.0026C20.453 18.4562 18.4622 20.4462 16.0077 20.4462Z" fill="#363132"/>
<path d="M24.7315 8.88136C24.7315 9.76695 24.0123 10.4806 23.1316 10.4806C22.2457 10.4806 21.5317 9.76174 21.5317 8.88136C21.5317 7.99577 22.2509 7.28209 23.1316 7.28209C24.0123 7.28209 24.7315 8.00098 24.7315 8.88136Z" fill="#363132"/>
</svg>
