<svg width="24" height="24" viewBox="0 0 24 24" fill="none" xmlns="http://www.w3.org/2000/svg">
<path d="M5.4157 15.5C5.00675 15.5 4.60762 15.3746 4.27212 15.1408C3.36593 14.5092 3.14332 13.2626 3.77491 12.3564L11.3192 1.53192C11.781 0.869434 12.5958 0.549613 13.3849 0.721155C14.4643 0.955798 15.149 2.02101 14.9144 3.10037L13.7406 8.49999H18.4877C18.9237 8.49999 19.3478 8.6425 19.6954 8.90581C20.5758 9.57281 20.7489 10.8273 20.0819 11.7077L12.1837 22.1333C11.6776 22.8013 10.8088 23.083 10.0072 22.839C8.95044 22.5174 8.35452 21.4 8.67613 20.3433L10.1502 15.5H5.4157ZM5.4157 13.5H11.4998C12.1713 13.5 12.652 14.1487 12.4565 14.7912L10.5895 20.9256L18.4877 10.5H12.4998C11.862 10.5 11.3871 9.91086 11.5226 9.28756L12.96 2.67551L5.4157 13.5Z" fill="#363132"/>
</svg>
