<svg width="131" height="30" viewBox="0 0 131 30" fill="none" xmlns="http://www.w3.org/2000/svg">
<path fill-rule="evenodd" clip-rule="evenodd" d="M5.37997 17.0606H16.3647V30H21.7447V0H16.3647V12.5056H5.37997V0H0V30H5.37997V17.0606ZM36.8805 0L45.7073 30H52.0763L60.7757 0H55.3957L50.3529 18.5714L49.2365 25.1832H48.6296L47.5131 18.5714L42.4328 0H36.8805ZM82.4978 30V18.5266L73.2889 0H79.1859L85.0004 12.8945H85.5999L91.2871 0H97.0567L87.8852 18.5266V30H82.4978ZM123.425 30V4.727H131V0H110.507V4.727H118.045V30H123.425Z" fill="#661F30"/>
</svg>
