<svg width="24" height="28" viewBox="0 0 24 28" fill="none" xmlns="http://www.w3.org/2000/svg">
<path d="M5 11.9231C5 16.7749 9.24448 20.7872 11.1232 22.3255L11.1239 22.3261C11.3933 22.5466 11.5281 22.657 11.7288 22.7135C11.885 22.7575 12.1148 22.7575 12.271 22.7135C12.472 22.6569 12.6071 22.5464 12.877 22.3255C14.7557 20.7872 19 16.7749 19 11.9231C19 10.087 18.2625 8.32605 16.9497 7.02772C15.637 5.72939 13.8566 5 12 5C10.1435 5 8.36301 5.72938 7.05025 7.02771C5.7375 8.32604 5 10.087 5 11.9231Z" stroke="#120D00" stroke-width="2" stroke-linecap="round" stroke-linejoin="round"/>
</svg>
