<svg width="32" height="32" viewBox="0 0 32 32" fill="none" xmlns="http://www.w3.org/2000/svg">
<path d="M2.6665 16.0013C2.73584 12.2169 4.07184 9.05663 6.67717 6.52304C9.2825 3.98946 12.3892 2.70133 15.9998 2.66666C19.8878 2.736 23.0745 4.06413 25.5572 6.65105C28.0398 9.23798 29.2985 12.3556 29.3332 16.0013C29.2638 19.751 27.9278 22.9033 25.3225 25.4556C22.7172 28.0052 19.6105 29.2987 15.9998 29.3333C14.7492 29.3333 13.5012 29.1413 12.2505 28.7599C12.4932 28.3786 12.7358 27.9438 12.9785 27.4585C13.2558 26.8691 13.6025 25.757 14.0212 24.1248C14.1252 23.6741 14.2825 23.066 14.4905 22.3006C14.7332 22.7167 15.1492 23.098 15.7412 23.4474C17.3038 24.1755 18.9518 24.1061 20.6878 23.2394C22.4932 22.1966 23.7438 20.5831 24.4372 18.3962C25.0612 16.1053 24.9838 13.9771 24.2025 12.0169C23.4212 10.0541 22.0238 8.64059 20.0105 7.77117C17.4772 7.04309 15.0105 7.12043 12.6158 8.00586C10.2212 8.89128 8.5545 10.4114 7.61584 12.5636C7.37317 13.3611 7.2265 14.1531 7.17317 14.9345C7.11984 15.716 7.1465 16.4787 7.2505 17.2254C7.3545 17.9722 7.61584 18.6416 8.03184 19.231C8.44784 19.8204 9.00517 20.2738 9.6985 20.5858C9.87184 20.6551 10.0105 20.6551 10.1145 20.5858C10.2532 20.5164 10.3918 20.2391 10.5305 19.7537C10.6692 19.2683 10.7225 18.9376 10.6878 18.7643C10.6532 18.6949 10.5838 18.5722 10.4798 18.3989C9.75184 17.2174 9.5065 15.9773 9.75184 14.6759C9.9945 13.3744 10.5332 12.2703 11.3652 11.3689C12.6505 10.2221 14.1518 9.59802 15.8692 9.49401C17.5865 9.39 19.0558 9.85938 20.2692 10.8995C20.9278 11.6622 21.3545 12.5823 21.5438 13.6598C21.7332 14.7372 21.7358 15.7693 21.5438 16.7587C21.3518 17.7482 21.0132 18.6763 20.5278 19.5457C19.6585 20.9005 18.6345 21.5939 17.4558 21.6286C16.7625 21.5939 16.1972 21.3245 15.7625 20.8205C15.3278 20.3164 15.1972 19.735 15.3732 19.0763C15.4425 18.6949 15.6505 17.9482 15.9972 16.8361C16.3438 15.724 16.5358 14.8919 16.5705 14.3372C16.4665 13.017 15.8585 12.3396 14.7465 12.305C13.8772 12.409 13.2372 12.801 12.8185 13.4757C12.3998 14.1505 12.1758 14.9265 12.1412 15.7933C12.2452 16.8014 12.4025 17.4948 12.6105 17.8762C12.2292 19.439 11.9332 20.6898 11.7252 21.6259C11.6558 21.8686 11.4638 22.6153 11.1518 23.8661C10.8398 25.1169 10.6665 26.0717 10.6318 26.7304V28.1892C8.16784 27.0424 6.22117 25.3863 4.79984 23.2154C3.3785 21.0445 2.6665 18.6389 2.6665 16.0013Z" fill="#363132"/>
</svg>
