<svg width="21" height="21" viewBox="0 0 21 21" fill="none" xmlns="http://www.w3.org/2000/svg">
<path d="M8.33431 14.5644H13.3343M8.33431 12.0644H13.3343M16.6673 7.8977H13.0007C12.5339 7.8977 12.3008 7.89769 12.1226 7.80686C11.9658 7.72697 11.8384 7.59952 11.7585 7.44272C11.6676 7.26446 11.6676 7.03108 11.6676 6.56437V2.89771M16.6676 15.231V8.4427C16.6676 8.05644 16.6678 7.86331 16.6261 7.68047C16.5892 7.51833 16.5283 7.36261 16.4453 7.21853C16.3517 7.05606 16.2203 6.91435 15.9579 6.63092L13.2928 3.7526C13.0011 3.43761 12.8552 3.2801 12.6816 3.16723C12.5278 3.06718 12.3582 2.99324 12.1803 2.94835C11.9795 2.89771 11.7653 2.89771 11.336 2.89771H7.66781C6.73439 2.89771 6.26733 2.89771 5.91081 3.07936C5.5972 3.23915 5.34242 3.49414 5.18263 3.80774C5.00098 4.16426 5.00098 4.63096 5.00098 5.56438V15.231C5.00098 16.1645 5.00098 16.6312 5.18263 16.9877C5.34242 17.3013 5.5972 17.5562 5.91081 17.716C6.26733 17.8977 6.73438 17.8977 7.66781 17.8977H14.0011C14.9346 17.8977 15.4009 17.8977 15.7575 17.716C16.0711 17.5562 16.3264 17.3013 16.4862 16.9877C16.6678 16.6312 16.6676 16.1645 16.6676 15.231Z" stroke="#363132" stroke-width="1.5" stroke-linecap="round" stroke-linejoin="round"/>
</svg>
