<svg width="32" height="33" viewBox="0 0 32 33" fill="none" xmlns="http://www.w3.org/2000/svg">
<path fill-rule="evenodd" clip-rule="evenodd" d="M18.7155 2.40742L5.54838 7.14758L5.5615 7.18403C3.14632 7.69296 1.33334 9.83611 1.33334 12.4027V24.4027C1.33334 27.3482 3.72115 29.736 6.66667 29.736H24C26.9455 29.736 29.3333 27.3482 29.3333 24.4027V23.5078C30.8869 22.9587 32 21.477 32 19.7354V17.0688C32 15.3271 30.8869 13.8455 29.3333 13.2964V12.4027C29.3333 10.348 28.1714 8.56469 26.4688 7.67396L25.3957 5.25941C24.2604 2.70505 21.3456 1.4606 18.7155 2.40742ZM22.6667 23.7354H26.6667V24.4027C26.6667 25.8755 25.4728 27.0694 24 27.0694H6.66667C5.19391 27.0694 4 25.8755 4 24.4027V12.4027C4 10.93 5.19391 9.73604 6.66667 9.73604H24C25.4728 9.73604 26.6667 10.93 26.6667 12.4027V13.0688H22.6667C19.7211 13.0688 17.3333 15.4566 17.3333 18.4021C17.3333 21.3476 19.7211 23.7354 22.6667 23.7354ZM23.2819 7.06938L22.9588 6.34245C22.3912 5.06527 20.9338 4.44304 19.6188 4.91645L13.6384 7.06938H23.2819ZM22.6667 15.7354C21.1939 15.7354 20 16.9293 20 18.4021C20 19.8748 21.1939 21.0688 22.6667 21.0688H28C28.7364 21.0688 29.3333 20.4718 29.3333 19.7354V17.0688C29.3333 16.3324 28.7364 15.7354 28 15.7354H22.6667ZM22.6667 19.7354C23.403 19.7354 24 19.1385 24 18.4021C24 17.6657 23.403 17.0688 22.6667 17.0688C21.9303 17.0688 21.3333 17.6657 21.3333 18.4021C21.3333 19.1385 21.9303 19.7354 22.6667 19.7354Z" fill="#5D5759"/>
</svg>
