<svg id="Layer_1" data-name="Layer 1" xmlns="http://www.w3.org/2000/svg" viewBox="0 0 1377.26 438.93" width="82" height="28"><rect fill="#ae0000" x="769.05" y="364.01" width="233.64" height="54.86"></rect><rect fill="#ff8600" x="408.39" y="364.01" width="360.65" height="54.86"></rect><rect fill="#0065b1" x="1002.75" y="364.01" width="26.7" height="54.86"></rect><rect fill="#e90a0a" x="21.34" y="364.01" width="347" height="54.86"></rect><rect fill="#008f20" x="1029.41" y="364.01" width="327.12" height="54.86"></rect><rect fill="#26221e" x="368.34" y="364.01" width="40.06" height="54.86"></rect><path fill="#fff" d="M22,153V115.81H79.34l3.18,25.12q18-27.54,56.6-27.55a85.56,85.56,0,0,1,42.45,10.67,76.53,76.53,0,0,1,30,30.05q10.85,19.36,10.84,45.1t-10.84,45.1a76.44,76.44,0,0,1-30,30A85.46,85.46,0,0,1,139.12,285Q107.19,285,89,264.88v77.79H40.6V153ZM88.27,199.2q0,21,12,33.6t30.57,12.56q18.62,0,30.57-12.56t12-33.6q0-21-12-33.6T130.8,153q-18.62,0-30.57,12.56T88.27,199.2Z"></path><path fill="#fff" d="M239.25,199.2q0-25.72,10.83-45.25a75.24,75.24,0,0,1,29.92-30q19.1-10.52,42.58-10.52,31.88,0,49.85,20.13v-17.7h48.43V282.59H374.7V263.37Q356.73,285,322.58,285q-23.64,0-42.65-10.52a75.24,75.24,0,0,1-29.85-30Q239.25,224.92,239.25,199.2Zm49,0q0,21,12.09,33.6T331,245.36q18.29,0,30.29-12.56t12-33.6q0-21-12-33.6T331,153q-18.59,0-30.67,12.56T288.28,199.2Z"></path><path fill="#fff" d="M460.66,322.24l19.22-34.66q10.31,8.64,25.52,13.63a98.74,98.74,0,0,0,31,5q23.86,0,35-11.21t11.1-34.11v-5.6a63.47,63.47,0,0,1-21.9,14.27,73.16,73.16,0,0,1-27.19,5q-32.88,0-52.14-18.77T462,199.5V115.81H510.4v76.48q0,40.5,33.68,40.51,17.35,0,27.86-11.26t10.5-33.63v-72.1h48.43V254.74q0,45.86-23.29,68.18t-67.43,22.33a163.79,163.79,0,0,1-44.6-5.91Q474.58,333.45,460.66,322.24Z"></path><path fill="#fff" d="M658.35,153V115.81h57.36l2.42,26a61.2,61.2,0,0,1,25.12-21.19q15.59-7.26,35.12-7.27,31.1,0,50.12,18.62t19,55.09v95.5H799.1V194.51q0-19.83-8.7-29.59t-25-9.76q-18.32,0-29.13,11.35t-10.82,33.6v82.48H677V153Z"></path><path fill="#fff" d="M875.92,199.2q0-24.82,11.74-44.35a81.2,81.2,0,0,1,32.71-30.49q21-11,47.34-11t47,11a82,82,0,0,1,32.51,30.49q11.8,19.53,11.8,44.35t-11.8,44.34a82,82,0,0,1-32.51,30.5q-20.72,11-47,11t-47.34-11a81.22,81.22,0,0,1-32.71-30.5Q875.92,224,875.92,199.2Zm49,0q0,21,12.08,33.6t30.67,12.56q18.59,0,30.44-12.56T1010,199.2q0-21-11.86-33.6T967.71,153Q949.13,153,937,165.6T925,199.2Z"></path><path fill="#fff" d="M1066.4,115.81H1112l39.35,112.9,41-112.9h40.86l39.66,112.9,40.56-112.9h42.83l-60.39,166.78h-46.61l-37.39-103.52L1173.1,282.59h-46.62Z"></path></svg>