<svg width="73" height="24" viewBox="0 0 73 24" fill="none" xmlns="http://www.w3.org/2000/svg">
<path fill-rule="evenodd" clip-rule="evenodd" d="M8.17193 11.2223C8.37998 11.3049 8.56878 11.4101 8.69977 11.5453C8.79995 11.6467 8.877 11.7519 8.9425 11.8683C9.12744 12.1988 9.16212 12.5443 9.15826 12.7734C9.15826 12.9386 9.13515 13.0438 9.13515 13.0438C9.13515 13.0438 9.12359 13.1339 9.10432 13.2766C9.05809 13.6034 8.96947 14.2193 8.88086 14.7338C8.79995 15.1995 8.70363 15.5826 8.70363 15.5826C8.70363 15.5826 8.4686 16.6154 7.59015 17.0698C6.71169 17.5242 5.47107 17.4754 5.47107 17.4754L2.2886 17.4604L1.64132 21.2911H0L1.75691 10.9482H3.71802H6.35338C6.35338 10.9482 6.47667 10.9482 6.66931 10.9557C6.87737 10.9632 7.17018 10.9857 7.47071 11.0383C7.70959 11.0796 7.95232 11.1397 8.17193 11.2223ZM7.09676 15.2033C7.2894 14.2193 7.43581 13.3893 7.43581 13.3705C7.43581 13.3686 7.43657 13.3631 7.43776 13.3545C7.44367 13.3119 7.46019 13.1926 7.44737 13.0551C7.43581 12.9424 7.40499 12.8147 7.32408 12.7171C7.26243 12.6419 7.06979 12.5931 6.82706 12.5631C6.5458 12.5255 6.20289 12.5143 5.94475 12.5105C5.71743 12.5067 5.55561 12.5105 5.55561 12.5105L3.14757 12.503L2.56193 15.9394L5.22041 15.9469C5.22041 15.9469 5.82531 15.9694 6.38783 15.853C6.72688 15.7816 7.02355 15.5788 7.09676 15.2033ZM21.318 13.825L15.2922 13.8325L15.0494 15.2897H18.9061L14.0747 19.8001L13.8127 21.2911L20.0427 21.2874L20.2893 19.8452L16.0589 19.8527L21.0984 15.162L21.318 13.825ZM29.4897 10.9482H31.0694L29.3009 21.2911L27.7174 21.2874L29.4897 10.9482ZM39.4339 13.8287L37.9198 13.8325L38.6903 21.2911L40.5243 21.2836L42.8784 16.0633L43.4178 21.2836H45.2826L48.6192 13.8287H47.0472L44.7201 19.0978L44.1691 13.825L42.3005 13.8212L39.9695 19.0791L39.4339 13.8287ZM24.7121 13.7311C25.3632 13.7236 26.1299 13.7536 26.573 13.8926C27.8907 14.3132 28.0718 15.3835 27.8175 16.7881L27.5979 18.0275L22.4543 18.0425C22.4543 18.0425 22.3541 18.2716 22.3118 19.1504C22.3079 19.173 22.3079 19.188 22.3079 19.1992C22.2363 19.9185 23.0505 19.9334 23.3015 19.9379L23.3269 19.9384L23.3482 19.9391L23.4001 19.9416C23.6068 19.9521 24.072 19.9757 24.8778 19.8865C25.7639 19.7889 25.8525 18.7335 25.8525 18.7335L27.49 18.7298L27.3898 19.1316L27.3874 19.1417C27.3741 19.1974 27.32 19.4234 27.1702 19.7363C27.0084 20.0743 26.7811 20.3597 26.7811 20.3597C26.7811 20.3597 26.2725 21.0207 25.3093 21.2423C24.3461 21.4639 23.0669 21.3662 23.0669 21.3662C23.0669 21.3662 22.4582 21.3813 21.7415 21.1108C21.0249 20.8442 20.8284 20.2696 20.7167 19.6537C20.6049 19.034 20.9825 17.1825 20.9825 17.1825C20.9825 17.1825 21.1713 15.5075 21.807 14.7413C22.4428 13.9752 23.5601 13.8175 23.5601 13.8175C23.7951 13.7686 24.0841 13.7386 24.7121 13.7311ZM22.7047 16.6079L26.2301 16.6116C26.2301 16.6116 26.3611 15.9957 26.2378 15.5901C26.1838 15.4173 25.9835 15.3009 25.7716 15.2596C25.1359 15.1319 24.3537 15.1883 24.0609 15.2145C23.7681 15.2408 23.456 15.2746 23.2094 15.4549C22.9667 15.6352 22.8434 16.0633 22.8434 16.0633L22.7047 16.6079ZM36.2786 13.8963C35.8355 13.7574 35.0688 13.7273 34.4176 13.7348C33.7896 13.7423 33.5007 13.7724 33.2656 13.8212C33.2656 13.8212 32.1483 13.9789 31.5126 14.7451C30.8769 15.5112 30.6881 17.1862 30.6881 17.1862C30.6881 17.1862 30.3105 19.0377 30.4222 19.6574C30.534 20.2733 30.7305 20.848 31.4471 21.1146C32.1637 21.385 32.7725 21.37 32.7725 21.37C32.7725 21.37 34.0516 21.4676 35.0148 21.246C35.9781 21.0245 36.4866 20.3635 36.4866 20.3635C36.4866 20.3635 36.714 20.0781 36.8758 19.74C37.0256 19.4271 37.0796 19.2011 37.0929 19.1455L37.0954 19.1354L37.1956 18.7335L35.5581 18.7373C35.5581 18.7373 35.4695 19.7926 34.5833 19.8903C33.8147 19.9753 33.356 19.9578 33.1359 19.9494L33.1359 19.9494C33.1033 19.9481 33.076 19.9471 33.0537 19.9466C33.0422 19.9461 33.027 19.9458 33.0088 19.9454C32.7597 19.9405 31.9417 19.9242 32.0135 19.2068C32.0135 19.1955 32.0135 19.1805 32.0173 19.1579C32.0597 18.2791 32.1599 18.05 32.1599 18.05L37.3034 18.035L37.5231 16.7956C37.7773 15.3873 37.5963 14.3132 36.2786 13.8963ZM35.9201 16.6116L32.3947 16.6079L32.5334 16.0633C32.5334 16.0633 32.6567 15.6352 32.8994 15.4549C33.1421 15.2746 33.4581 15.2408 33.7509 15.2145C34.0437 15.1883 34.8259 15.1319 35.4616 15.2596C35.6735 15.3009 35.8738 15.4173 35.9278 15.5901C36.0511 15.992 35.9201 16.6116 35.9201 16.6116ZM50.4379 13.8325L51.4512 19.2856L54.3139 13.8287L55.9244 13.8437L51.7979 21.6366C51.7979 21.6366 51.0505 23.0487 50.5881 23.4055C50.1258 23.7623 49.8407 23.9238 49.4631 23.9614L49.3618 23.9716C49.0546 24.0031 48.8972 24.0192 48.5692 23.9614L48.184 23.8938L48.4228 22.5004C48.4228 22.5004 49.0624 22.6168 49.44 22.4704C49.8214 22.3239 50.1258 21.693 50.1258 21.693L50.3184 21.3775L48.8274 13.8287L50.4379 13.8325ZM11.5314 14.3432C12.0438 14.0691 12.6449 13.825 13.2806 13.825H14.1976L13.9356 15.2671L13.0648 15.2709C11.8165 15.2709 11.1769 16.3037 11.0228 17.1374L10.2754 21.2498H8.58782L9.93632 13.825H11.62L11.5314 14.3432Z" fill="#D13239"/>
<path fill-rule="evenodd" clip-rule="evenodd" d="M44.1846 3.83877L46.1418 0.00429432C46.1418 0.00429432 50.4301 -0.0783291 54.1288 0.481257C57.8276 1.03709 61.2104 1.89337 61.1372 1.93092L51.7593 6.71182C51.7593 6.71182 49.567 5.3598 46.8469 4.52981C45.3058 4.08664 44.1846 3.83877 44.1846 3.83877ZM31.7859 2.03608L32.1943 4.27067C32.1943 4.27067 34.0822 3.78244 36.3438 3.51955C39.2489 3.13272 42.3427 3.54584 42.3427 3.54584L43.5063 0.0944296C43.5063 0.0944296 39.9886 0.323522 37.334 0.80424C34.6832 1.28496 31.7859 2.03608 31.7859 2.03608ZM23.0555 7.93239L20.7091 6.39259C20.7091 6.39259 22.832 5.21708 25.6561 4.12044C28.4764 3.02381 29.9829 2.56562 29.9829 2.56562L30.4607 4.74763C30.4607 4.74763 27.7444 5.63395 26.1878 6.35128C24.5773 7.01977 23.0555 7.93239 23.0555 7.93239ZM17.2414 11.8007H12.1826C12.1826 11.8007 14.1553 10.3285 15.1493 9.69377C16.1742 9.00649 18.5899 7.54931 18.5899 7.54931L21.4488 8.85251C21.4488 8.85251 19.9847 9.75761 19.1794 10.3322C18.3742 10.9068 17.2414 11.8007 17.2414 11.8007ZM56.5101 14.5723L58.1706 14.5761L58.2708 13.9489C58.2708 13.9489 58.4481 12.8147 58.8449 12.5969C58.972 12.5255 59.1762 12.4617 59.4113 12.4203C59.8466 12.3452 60.3976 12.3377 60.8484 12.3527L60.8858 12.354C61.5478 12.3756 61.8129 12.3842 62.5013 12.4617C63.2025 12.5405 63.0253 13.2015 63.0253 13.2015L62.8866 14.1892C62.8866 14.1892 62.8249 14.6324 62.6631 14.9066C62.5205 15.1507 62.1275 15.3159 61.9002 15.3873C61.3531 15.56 59.4806 16.0257 59.4806 16.0257L58.0088 16.4388C58.0088 16.4388 57.1034 16.6942 56.5987 17.2388C56.0901 17.7871 55.8897 18.4068 55.8204 18.7298C55.751 19.0527 55.3619 21.2873 55.3619 21.2873L63.3065 21.2911L63.5724 19.7438L57.2883 19.7513L57.4001 19.1203C57.4001 19.1203 57.4733 18.4706 57.743 18.2566C57.7561 18.2461 57.7682 18.2351 57.7811 18.2234C57.8518 18.1591 57.9475 18.0721 58.371 17.9261C58.6715 17.8209 59.6964 17.5543 59.6964 17.5543L62.0659 16.9233C62.0659 16.9233 63.3605 16.6003 63.869 15.9093C64.3776 15.222 64.5741 13.9038 64.5741 13.9038C64.5741 13.9038 64.7128 12.6231 64.6049 12.2213C64.5009 11.8194 64.1118 11.3387 63.6379 11.1322C63.164 10.9256 62.6708 10.8054 61.2414 10.8242C59.812 10.843 59.103 10.9068 58.3787 11.1697C57.6544 11.4289 57.2344 11.9021 56.9685 12.5706C56.6796 13.2053 56.5101 14.5723 56.5101 14.5723ZM71.4666 17.4491L72.5801 10.9444H70.6075L64.466 17.374L64.1886 19.0039H69.5595L69.1665 21.2873L70.8155 21.2911L71.2046 19.0039L72.7265 19.0077L73.0001 17.4491H71.4666ZM69.8252 17.4529L66.3538 17.4491L70.5804 13.0588L69.8252 17.4529ZM55.5004 9.27689L53.4391 7.75212L65.1827 3.33552L65.2735 3.37571C66.7685 4.03735 67.6008 4.40571 69.0663 5.33351C69.652 5.70531 70.4303 6.2987 70.6268 6.48648C71.1623 7.00851 71.6747 7.51176 71.956 7.98497C72.4068 8.7436 72.4415 9.27689 72.4415 9.27689H55.5004Z" fill="#B3B2B1"/>
</svg>
