<svg width="118" height="126" viewBox="0 0 118 126" fill="none" xmlns="http://www.w3.org/2000/svg">
<path d="M6.04 37.64L41.73 58.25C42.2 58.52 42.72 58.65 43.23 58.65C44.27 58.65 45.27 58.11 45.83 57.15C46.66 55.71 46.17 53.88 44.73 53.05L9.02 32.43C9.18 32.32 9.33 32.2 9.5 32.11L52.5 7.28003C54.66 6.03003 57.34 6.03003 59.5 7.28003L102.5 32.11C102.67 32.21 102.82 32.32 102.98 32.43L92.54 38.46C91.11 39.29 90.61 41.12 91.44 42.56C92 43.52 93 44.06 94.04 44.06C94.55 44.06 95.06 43.93 95.54 43.66L105.96 37.64C105.97 37.82 106 37.99 106 38.17V48.53C106 50.19 107.34 51.53 109 51.53C110.66 51.53 112 50.19 112 48.53V38.17C112 33.54 109.51 29.23 105.5 26.91L62.5 2.08003C58.49 -0.229966 53.51 -0.229966 49.5 2.08003L6.5 26.91C2.49 29.23 0 33.54 0 38.17V87.82C0 92.45 2.49 96.76 6.5 99.08L37.09 116.74C37.56 117.01 38.08 117.14 38.59 117.14C39.63 117.14 40.63 116.6 41.19 115.64C42.02 114.2 41.53 112.37 40.09 111.54L9.5 93.89C7.34 92.64 6 90.32 6 87.83V38.17C6 37.99 6.02 37.82 6.04 37.64Z" fill="#661F30"/>
<path d="M118 88C118 67.05 100.95 50 80 50C59.05 50 42 67.05 42 88C42 108.95 59.05 126 80 126C100.95 126 118 108.95 118 88ZM101.04 81.2L79.49 101.2C78.91 101.73 78.18 102 77.45 102C76.7 102 75.96 101.72 75.38 101.17L64.93 91.17C63.73 90.02 63.69 88.13 64.84 86.93C65.99 85.73 67.88 85.69 69.08 86.84L77.49 94.89L96.97 76.81C98.19 75.68 100.08 75.75 101.21 76.97C102.33 78.17 102.25 80.07 101.04 81.2Z" fill="#661F30"/>
</svg>
