<svg width="20" height="21" viewBox="0 0 20 21" fill="none" xmlns="http://www.w3.org/2000/svg">
<path d="M6.66667 4.14771V2.48104C6.66667 2.0208 7.03976 1.64771 7.5 1.64771H12.5C12.9602 1.64771 13.3333 2.0208 13.3333 2.48104V4.14771H16.6667C17.1269 4.14771 17.5 4.5208 17.5 4.98104C17.5 5.44128 17.1269 5.81437 16.6667 5.81437V15.8144C16.6667 17.6553 15.1743 19.1477 13.3333 19.1477H6.66667C4.82572 19.1477 3.33333 17.6553 3.33333 15.8144V5.81437C2.8731 5.81437 2.5 5.44128 2.5 4.98104C2.5 4.5208 2.8731 4.14771 3.33333 4.14771H6.66667ZM5 5.81437V15.8144C5 16.7348 5.74619 17.481 6.66667 17.481H13.3333C14.2538 17.481 15 16.7348 15 15.8144V5.81437H5ZM7.5 8.31437C7.5 7.85413 7.8731 7.48104 8.33333 7.48104C8.79357 7.48104 9.16667 7.85413 9.16667 8.31437V14.981C9.16667 15.4413 8.79357 15.8144 8.33333 15.8144C7.8731 15.8144 7.5 15.4413 7.5 14.981V8.31437ZM10.8333 8.31437C10.8333 7.85413 11.2064 7.48104 11.6667 7.48104C12.1269 7.48104 12.5 7.85413 12.5 8.31437V14.981C12.5 15.4413 12.1269 15.8144 11.6667 15.8144C11.2064 15.8144 10.8333 15.4413 10.8333 14.981V8.31437ZM8.33333 4.14771H11.6667V3.31437H8.33333V4.14771Z" fill="#1F1C25"/>
</svg>
