<svg width="20" height="21" viewBox="0 0 20 21" fill="none" xmlns="http://www.w3.org/2000/svg">
<path d="M6.66667 4.14746V2.48079C6.66667 2.02056 7.03976 1.64746 7.5 1.64746H12.5C12.9602 1.64746 13.3333 2.02056 13.3333 2.48079V4.14746H16.6667C17.1269 4.14746 17.5 4.52056 17.5 4.98079C17.5 5.44103 17.1269 5.81413 16.6667 5.81413V15.8141C16.6667 17.6551 15.1743 19.1475 13.3333 19.1475H6.66667C4.82572 19.1475 3.33333 17.6551 3.33333 15.8141V5.81413C2.8731 5.81413 2.5 5.44103 2.5 4.98079C2.5 4.52056 2.8731 4.14746 3.33333 4.14746H6.66667ZM5 5.81413V15.8141C5 16.7346 5.74619 17.4808 6.66667 17.4808H13.3333C14.2538 17.4808 15 16.7346 15 15.8141V5.81413H5ZM7.5 8.31413C7.5 7.85389 7.8731 7.48079 8.33333 7.48079C8.79357 7.48079 9.16667 7.85389 9.16667 8.31413V14.9808C9.16667 15.441 8.79357 15.8141 8.33333 15.8141C7.8731 15.8141 7.5 15.441 7.5 14.9808V8.31413ZM10.8333 8.31413C10.8333 7.85389 11.2064 7.48079 11.6667 7.48079C12.1269 7.48079 12.5 7.85389 12.5 8.31413V14.9808C12.5 15.441 12.1269 15.8141 11.6667 15.8141C11.2064 15.8141 10.8333 15.441 10.8333 14.9808V8.31413ZM8.33333 4.14746H11.6667V3.31413H8.33333V4.14746Z" fill="#969394"/>
</svg>
