<svg width="20" height="21" viewBox="0 0 20 21" fill="none" xmlns="http://www.w3.org/2000/svg">
<path d="M12.2913 9.98104H17.1665L15.8498 7.26795C15.7204 7.00132 15.4559 6.83289 15.1666 6.83289H12.2913V9.98104ZM12.2913 11.5551V13.9162H12.8037C13.1183 12.9992 13.9671 12.3421 14.965 12.3421C15.9628 12.3421 16.8116 12.9992 17.1262 13.9162H17.6386V11.5551H12.2913ZM12.2913 5.25882H15.1666C16.0346 5.25882 16.8281 5.7641 17.2163 6.56401L18.8438 9.91756C19.0559 10.3547 19.1663 10.8367 19.1663 11.3255V13.9162C19.1663 14.7856 18.4823 15.4903 17.6386 15.4903H17.1262C16.8116 16.4073 15.9628 17.0644 14.965 17.0644C13.9671 17.0644 13.1183 16.4073 12.8037 15.4903H11.5273H7.19566C6.88107 16.4073 6.0322 17.0644 5.0344 17.0644C4.03659 17.0644 3.18773 16.4073 2.87313 15.4903H1.5969C1.17501 15.4903 0.833008 15.1379 0.833008 14.7033V5.25882C0.833008 3.95481 1.85902 2.89771 3.12467 2.89771H9.99967C11.2653 2.89771 12.2913 3.95481 12.2913 5.25882ZM10.7636 6.02102V5.25882C10.7636 4.82415 10.4216 4.47178 9.99967 4.47178H3.12467C2.70279 4.47178 2.36079 4.82415 2.36079 5.25882V13.9162H2.87313C3.18773 12.9992 4.03659 12.3421 5.0344 12.3421C6.0322 12.3421 6.88107 12.9992 7.19566 13.9162H10.7632V6.04585C10.7632 6.03755 10.7633 6.02927 10.7636 6.02102ZM14.965 15.4903C15.3868 15.4903 15.7288 15.1379 15.7288 14.7033C15.7288 14.2686 15.3868 13.9162 14.965 13.9162C14.5431 13.9162 14.2011 14.2686 14.2011 14.7033C14.2011 15.1379 14.5431 15.4903 14.965 15.4903ZM5.0344 15.4903C5.45628 15.4903 5.79829 15.1379 5.79829 14.7033C5.79829 14.2686 5.45628 13.9162 5.0344 13.9162C4.61251 13.9162 4.27051 14.2686 4.27051 14.7033C4.27051 15.1379 4.61251 15.4903 5.0344 15.4903Z" fill="#363132"/>
</svg>
