<svg width="207" height="34" viewBox="0 0 207 34" fill="none" xmlns="http://www.w3.org/2000/svg">
<rect x="3" y="2" width="15" height="15" fill="#DAD3C8"/>
<rect x="18" y="2" width="15" height="15" fill="#DAD3C8"/>
<rect x="33" y="2" width="15" height="15" fill="#DAD3C8"/>
<rect x="18" y="17" width="15" height="15" fill="#DAD3C8"/>
<rect x="60" y="2" width="15" height="15" fill="#DAD3C8"/>
<rect x="75" y="2" width="15" height="15" fill="#DAD3C8"/>
<rect x="90" y="2" width="15" height="15" fill="#DAD3C8"/>
<rect x="105" y="2" width="15" height="15" fill="#DAD3C8"/>
<rect x="120" y="2" width="15" height="15" fill="#DAD3C8"/>
<rect x="60" y="17" width="15" height="15" fill="#DAD3C8"/>
<rect x="120" y="17" width="15" height="15" fill="#DAD3C8"/>
<rect x="147" y="2" width="15" height="15" fill="#DAD3C8"/>
<rect x="162" y="2" width="15" height="15" fill="#DAD3C8"/>
<rect x="147" y="17" width="15" height="15" fill="#DAD3C8"/>
<rect x="204" y="2" width="15" height="15" transform="rotate(90 204 2)" fill="#DAD3C8"/>
<rect x="204" y="17" width="15" height="15" transform="rotate(90 204 17)" fill="#DAD3C8"/>
</svg>
