<svg width="76" height="24" viewBox="0 0 76 24" fill="none" xmlns="http://www.w3.org/2000/svg">
<path fill-rule="evenodd" clip-rule="evenodd" d="M0.101335 0.42112H10.0066C11.3492 0.470066 12.4386 0.890213 12.7931 2.37403L14.9456 13.0474C14.9459 13.0484 14.9462 13.0495 14.9465 13.0505L15.6054 16.2635L21.6347 0.42112H28.1447L18.4677 23.6291H11.9573L6.47002 3.44208C4.57671 2.36201 2.41591 1.49335 0 0.890542L0.101335 0.42112Z" fill="#15195A"/>
<path fill-rule="evenodd" clip-rule="evenodd" d="M66.2712 0.42112H71.0333L76.0001 23.6534H70.2997C70.2997 23.6534 69.7419 20.984 69.5651 20.1684H61.6607C61.4321 20.786 60.3686 23.6534 60.3686 23.6534H53.9087L63.0534 2.34874C63.687 0.840939 64.8027 0.42112 66.2712 0.42112ZM65.8919 8.92295C65.8919 8.92295 63.941 14.0886 63.434 15.4232H68.5512C68.2981 14.2617 67.1322 8.70056 67.1322 8.70056L66.7019 6.6987C66.5208 7.21419 66.2587 7.9229 66.082 8.40092C65.9622 8.72496 65.8816 8.94299 65.8919 8.92295Z" fill="#15195A"/>
<path d="M55.2506 0.989105C54.0363 0.519025 52.1102 0 49.7287 0C43.6489 0 39.3676 3.16343 39.3413 7.68618C39.2908 11.023 42.4066 12.8764 44.737 13.989C47.1189 15.126 47.9286 15.8681 47.9286 16.8815C47.9043 18.4379 46.0039 19.1553 44.2314 19.1553C41.7734 19.1553 40.4564 18.7854 38.4549 17.9195L37.6442 17.5483L36.7827 22.7635C38.2267 23.4054 40.887 23.975 43.6489 24C50.1088 24 54.3144 20.8855 54.3642 16.0658C54.3888 13.4211 52.7435 11.3946 49.1964 9.73863C47.0431 8.67561 45.7244 7.95883 45.7244 6.87117C45.7497 5.8824 46.8398 4.86964 49.2705 4.86964C51.272 4.82004 52.7425 5.28946 53.8565 5.75921L54.4133 6.00591L55.2506 0.989105Z" fill="#15195A"/>
<path d="M32.9334 23.6537H26.7769L30.6276 0.42112H36.7838L32.9334 23.6537Z" fill="#15195A"/>
</svg>
