<svg width="32" height="33" viewBox="0 0 32 33" fill="none" xmlns="http://www.w3.org/2000/svg">
<g clip-path="url(#clip0_2244_119137)">
<path fill-rule="evenodd" clip-rule="evenodd" d="M18.7162 2.40739L5.54903 7.14755L5.56214 7.184C3.14697 7.69292 1.33398 9.83608 1.33398 12.4027V24.4027C1.33398 27.3482 3.7218 29.736 6.66732 29.736H24.0007C26.9462 29.736 29.334 27.3482 29.334 24.4027V23.5078C30.8876 22.9587 32.0006 21.477 32.0006 19.7354V17.0687C32.0006 15.3271 30.8876 13.8454 29.334 13.2963V12.4027C29.334 10.348 28.1721 8.56466 26.4695 7.67393L25.3963 5.25938C24.2611 2.70502 21.3462 1.46057 18.7162 2.40739ZM22.6673 23.7354H26.6673V24.4027C26.6673 25.8754 25.4734 27.0693 24.0007 27.0693H6.66732C5.19456 27.0693 4.00065 25.8754 4.00065 24.4027V12.4027C4.00065 10.9299 5.19456 9.73601 6.66732 9.73601H24.0007C25.4734 9.73601 26.6673 10.9299 26.6673 12.4027V13.0687H22.6673C19.7218 13.0687 17.334 15.4565 17.334 18.4021C17.334 21.3476 19.7218 23.7354 22.6673 23.7354ZM23.2826 7.06935L22.9595 6.34242C22.3919 5.06524 20.9344 4.44301 19.6194 4.91642L13.6391 7.06935H23.2826ZM22.6673 15.7354C21.1946 15.7354 20.0007 16.9293 20.0007 18.4021C20.0007 19.8748 21.1946 21.0687 22.6673 21.0687H28.0006C28.737 21.0687 29.334 20.4718 29.334 19.7354V17.0687C29.334 16.3323 28.737 15.7354 28.0006 15.7354H22.6673ZM22.6673 19.7354C23.4037 19.7354 24.0007 19.1384 24.0007 18.4021C24.0007 17.6657 23.4037 17.0687 22.6673 17.0687C21.9309 17.0687 21.334 17.6657 21.334 18.4021C21.334 19.1384 21.9309 19.7354 22.6673 19.7354Z" fill="#5D5759"/>
</g>
<defs>
<clipPath id="clip0_2244_119137">
<rect width="32" height="32" fill="white" transform="translate(0 0.397705)"/>
</clipPath>
</defs>
</svg>
