<svg width="16" height="16" viewBox="0 0 16 16" fill="none" xmlns="http://www.w3.org/2000/svg">
<path d="M8.0332 10.3H8.7832C8.7832 9.88575 8.44742 9.54997 8.0332 9.54997V10.3ZM8.0332 10.3666L8.03302 11.1166C8.23196 11.1167 8.42277 11.0377 8.56347 10.897C8.70416 10.7564 8.7832 10.5656 8.7832 10.3666H8.0332ZM7.9668 10.3666H7.2168C7.2168 10.7808 7.55247 11.1165 7.96661 11.1166L7.9668 10.3666ZM7.9668 10.3V9.54997C7.55258 9.54997 7.2168 9.88575 7.2168 10.3H7.9668ZM8.75 5.6333C8.75 5.21909 8.41421 4.8833 8 4.8833C7.58579 4.8833 7.25 5.21909 7.25 5.6333H8.75ZM7.25 8.29997C7.25 8.71418 7.58579 9.04997 8 9.04997C8.41421 9.04997 8.75 8.71418 8.75 8.29997H7.25ZM8 13.25C5.10051 13.25 2.75 10.8995 2.75 8H1.25C1.25 11.7279 4.27208 14.75 8 14.75V13.25ZM2.75 8C2.75 5.10051 5.10051 2.75 8 2.75V1.25C4.27208 1.25 1.25 4.27208 1.25 8H2.75ZM8 2.75C10.8995 2.75 13.25 5.10051 13.25 8H14.75C14.75 4.27208 11.7279 1.25 8 1.25V2.75ZM13.25 8C13.25 10.8995 10.8995 13.25 8 13.25V14.75C11.7279 14.75 14.75 11.7279 14.75 8H13.25ZM7.2832 10.3V10.3666H8.7832V10.3H7.2832ZM8.03339 9.61663L7.96698 9.61662L7.96661 11.1166L8.03302 11.1166L8.03339 9.61663ZM8.7168 10.3666V10.3H7.2168V10.3666H8.7168ZM7.9668 11.05H8.0332V9.54997H7.9668V11.05ZM7.25 5.6333V8.29997H8.75V5.6333H7.25Z" fill="#A83232"/>
</svg>
