<svg width="56" height="24" viewBox="0 0 56 24" fill="none" xmlns="http://www.w3.org/2000/svg">
<rect width="10" height="10" transform="matrix(1 0 0 -1 3 12)" fill="#DAD3C8"/>
<rect width="10" height="10" transform="matrix(1 0 0 -1 23 12)" fill="#DAD3C8"/>
<rect width="10" height="10" transform="matrix(1 0 0 -1 43 12)" fill="#DAD3C8"/>
<rect width="10" height="10" transform="matrix(1 0 0 -1 3 22)" fill="#DAD3C8"/>
<rect width="10" height="10" transform="matrix(1 0 0 -1 13 22)" fill="#DAD3C8"/>
<rect width="10" height="10" transform="matrix(1 0 0 -1 23 22)" fill="#DAD3C8"/>
<rect width="10" height="10" transform="matrix(1 0 0 -1 33 22)" fill="#DAD3C8"/>
<rect width="10" height="10" transform="matrix(1 0 0 -1 43 22)" fill="#DAD3C8"/>
</svg>
