<svg width="24" height="25" viewBox="0 0 24 25" fill="none" xmlns="http://www.w3.org/2000/svg">
<path d="M14.75 12.3975H20.6001L19.0202 9.14176C18.8649 8.8218 18.5475 8.61968 18.2003 8.61968H14.75V12.3975ZM14.75 14.2863V17.1197H15.3648C15.7423 16.0192 16.761 15.2308 17.9583 15.2308C19.1557 15.2308 20.1743 16.0192 20.5519 17.1197H21.1667V14.2863H14.75ZM14.75 6.73079H18.2003C19.2419 6.73079 20.1941 7.33713 20.6599 8.29702L22.6129 12.3213C22.8675 12.8459 23 13.4243 23 14.0108V17.1197C23 18.1629 22.1792 19.0086 21.1667 19.0086H20.5519C20.1743 20.109 19.1557 20.8975 17.9583 20.8975C16.761 20.8975 15.7423 20.109 15.3648 19.0086H13.8331H8.63519C8.25767 20.109 7.23903 20.8975 6.04167 20.8975C4.8443 20.8975 3.82566 20.109 3.44815 19.0086H1.91667C1.41041 19.0086 1 18.5857 1 18.0641V6.73079C1 5.16599 2.23122 3.89746 3.75 3.89746H12C13.5188 3.89746 14.75 5.16599 14.75 6.73079ZM12.9167 7.64544V6.73079C12.9167 6.20919 12.5063 5.78635 12 5.78635H3.75C3.24374 5.78635 2.83333 6.20919 2.83333 6.73079V17.1197H3.44815C3.82566 16.0192 4.8443 15.2308 6.04167 15.2308C7.23903 15.2308 8.25767 16.0192 8.63519 17.1197H12.9162V7.67524C12.9162 7.66527 12.9164 7.65534 12.9167 7.64544ZM17.9583 19.0086C18.4646 19.0086 18.875 18.5857 18.875 18.0641C18.875 17.5425 18.4646 17.1197 17.9583 17.1197C17.4521 17.1197 17.0417 17.5425 17.0417 18.0641C17.0417 18.5857 17.4521 19.0086 17.9583 19.0086ZM6.04167 19.0086C6.54793 19.0086 6.95833 18.5857 6.95833 18.0641C6.95833 17.5425 6.54793 17.1197 6.04167 17.1197C5.53541 17.1197 5.125 17.5425 5.125 18.0641C5.125 18.5857 5.53541 19.0086 6.04167 19.0086Z" fill="#661F30"/>
</svg>
