<svg width="16" height="13" viewBox="0 0 16 13" fill="none" xmlns="http://www.w3.org/2000/svg">
<mask id="path-1-inside-1_827_41831" fill="white">
<path d="M12.3137 0.14801H14.6137L9.58866 5.44285L15.5002 12.648H10.8716L7.24616 8.27817L3.09794 12.648H0.796444L6.17122 6.98457L0.500244 0.14801H5.24645L8.52349 4.14224L12.3137 0.14801ZM11.5063 11.3788H12.7809L4.55392 1.35057H3.18624L11.5063 11.3788Z"/>
</mask>
<path d="M12.3137 0.14801H14.6137L9.58866 5.44285L15.5002 12.648H10.8716L7.24616 8.27817L3.09794 12.648H0.796444L6.17122 6.98457L0.500244 0.14801H5.24645L8.52349 4.14224L12.3137 0.14801ZM11.5063 11.3788H12.7809L4.55392 1.35057H3.18624L11.5063 11.3788Z" fill="#363132"/>
<path d="M12.3137 0.14801V-1.60199H11.5618L11.0442 -1.05657L12.3137 0.14801ZM14.6137 0.14801L15.8831 1.35269L18.6872 -1.60199H14.6137V0.14801ZM9.58866 5.44285L8.31931 4.23817L7.25593 5.35864L8.23575 6.55287L9.58866 5.44285ZM15.5002 12.648V14.398H19.1997L16.8532 11.538L15.5002 12.648ZM10.8716 12.648L9.52475 13.7654L10.0496 14.398H10.8716V12.648ZM7.24616 8.27817L8.59299 7.16078L7.33423 5.64355L5.97696 7.07333L7.24616 8.27817ZM3.09794 12.648V14.398H3.84962L4.36714 13.8528L3.09794 12.648ZM0.796444 12.648L-0.472919 11.4433L-3.27699 14.398H0.796444V12.648ZM6.17122 6.98457L7.44058 8.18924L8.50972 7.06268L7.51814 5.86729L6.17122 6.98457ZM0.500244 0.14801V-1.60199H-3.2251L-0.846674 1.26529L0.500244 0.14801ZM5.24645 0.14801L6.59938 -0.961987L6.07429 -1.60199H5.24645V0.14801ZM8.52349 4.14224L7.17057 5.25224L8.42817 6.78507L9.79293 5.34683L8.52349 4.14224ZM11.5063 11.3788L10.1595 12.4962L10.6844 13.1288H11.5063V11.3788ZM12.7809 11.3788V13.1288H16.4801L14.1339 10.2688L12.7809 11.3788ZM4.55392 1.35057L5.90688 0.240623L5.3818 -0.399427H4.55392V1.35057ZM3.18624 1.35057V-0.399427H-0.539561L1.83943 2.46798L3.18624 1.35057ZM12.3137 1.89801H14.6137V-1.60199H12.3137V1.89801ZM13.3444 -1.05667L8.31931 4.23817L10.858 6.64753L15.8831 1.35269L13.3444 -1.05667ZM8.23575 6.55287L14.1473 13.758L16.8532 11.538L10.9416 4.33284L8.23575 6.55287ZM15.5002 10.898H10.8716V14.398H15.5002V10.898ZM12.2184 11.5306L8.59299 7.16078L5.89933 9.39555L9.52475 13.7654L12.2184 11.5306ZM5.97696 7.07333L1.82873 11.4432L4.36714 13.8528L8.51536 9.483L5.97696 7.07333ZM3.09794 10.898H0.796444V14.398H3.09794V10.898ZM2.06581 13.8527L7.44058 8.18924L4.90186 5.77991L-0.472919 11.4433L2.06581 13.8527ZM7.51814 5.86729L1.84716 -0.969268L-0.846674 1.26529L4.8243 8.10185L7.51814 5.86729ZM0.500244 1.89801H5.24645V-1.60199H0.500244V1.89801ZM3.89353 1.25801L7.17057 5.25224L9.87642 3.03225L6.59938 -0.961987L3.89353 1.25801ZM9.79293 5.34683L13.5831 1.35259L11.0442 -1.05657L7.25405 2.93766L9.79293 5.34683ZM11.5063 13.1288H12.7809V9.62879H11.5063V13.1288ZM14.1339 10.2688L5.90688 0.240623L3.20096 2.46052L11.4279 12.4887L14.1339 10.2688ZM4.55392 -0.399427H3.18624V3.10057H4.55392V-0.399427ZM1.83943 2.46798L10.1595 12.4962L12.8531 10.2614L4.53306 0.233167L1.83943 2.46798Z" fill="#363132" mask="url(#path-1-inside-1_827_41831)"/>
</svg>
