<svg width="24" height="25" viewBox="0 0 24 25" fill="none" xmlns="http://www.w3.org/2000/svg">
<path fill-rule="evenodd" clip-rule="evenodd" d="M7.55556 2.89746C5.59188 2.89746 4 4.52552 4 6.53382V21.9884C4 22.3034 4.15951 22.596 4.42157 22.7617C4.68363 22.9273 5.01087 22.9424 5.28641 22.8015L8.44444 21.1866L11.6025 22.8015C11.8527 22.9295 12.1473 22.9295 12.3975 22.8015L15.5556 21.1866L18.7136 22.8015C18.9891 22.9424 19.3164 22.9273 19.5784 22.7617C19.8405 22.596 20 22.3034 20 21.9884V6.53382C20 4.52552 18.4081 2.89746 16.4444 2.89746H7.55556ZM5.77778 6.53382C5.77778 5.52967 6.57372 4.71564 7.55556 4.71564H16.4444C17.4263 4.71564 18.2222 5.52967 18.2222 6.53382V20.5174L15.9531 19.3571C15.7028 19.2291 15.4083 19.2291 15.158 19.3571L12 20.972L8.84197 19.3571C8.59172 19.2291 8.29717 19.2291 8.04692 19.3571L5.77778 20.5174V6.53382ZM11.6802 9.05039C12.0573 8.72897 12.1083 8.15573 11.794 7.77002C11.4797 7.38431 10.9192 7.3322 10.5421 7.65362L7.87539 9.92635C7.67273 10.0991 7.55556 10.3549 7.55556 10.6247C7.55556 10.8945 7.67273 11.1504 7.87539 11.3231L10.5421 13.5958C10.9192 13.9173 11.4797 13.8652 11.794 13.4794C12.1083 13.0937 12.0573 12.5205 11.6802 12.1991L10.8996 11.5338H13.1111C13.9702 11.5338 14.6667 12.2461 14.6667 13.1247C14.6667 14.0034 13.9702 14.7156 13.1111 14.7156H12C11.5091 14.7156 11.1111 15.1227 11.1111 15.6247C11.1111 16.1268 11.5091 16.5338 12 16.5338H13.1111C14.9521 16.5338 16.4444 15.0075 16.4444 13.1247C16.4444 11.2419 14.9521 9.71564 13.1111 9.71564H10.8996L11.6802 9.05039Z" fill="#661F30"/>
</svg>
