<svg width="79" height="34" viewBox="0 0 79 34" fill="none" xmlns="http://www.w3.org/2000/svg">
<rect width="15" height="15" transform="matrix(1 0 0 -1 2 17)" fill="#661F30"/>
<rect width="15" height="15" transform="matrix(1 0 0 -1 32 17)" fill="#661F30"/>
<rect width="15" height="15" transform="matrix(1 0 0 -1 62 17)" fill="#661F30"/>
<rect width="15" height="15" transform="matrix(1 0 0 -1 2 32)" fill="#661F30"/>
<rect width="15" height="15" transform="matrix(1 0 0 -1 17 32)" fill="#661F30"/>
<rect width="15" height="15" transform="matrix(1 0 0 -1 32 32)" fill="#661F30"/>
<rect width="15" height="15" transform="matrix(1 0 0 -1 47 32)" fill="#661F30"/>
<rect width="15" height="15" transform="matrix(1 0 0 -1 62 32)" fill="#661F30"/>
</svg>
